<svg xmlns="http://www.w3.org/2000/svg" xmlns:xlink="http://www.w3.org/1999/xlink" version="1.1" data-diagram-type="SEQUENCE" style="width:1177px;height:740px;background:#FFFFFF;" width="1177px" height="740px" viewBox="0 0 1177 740" zoomAndPan="magnify" preserveAspectRatio="none" contentStyleType="text/css"><?plantuml 1.2026.9beta4?><defs/><g font-family="sans-serif" lengthAdjust="spacing"><g class="title" data-source-line="4"><text x="452.641" y="27.995" fill="#000" font-size="14" textLength="270.607" font-weight="700">Patient calling and display update</text></g><rect x="356.796" y="310.391" width="469.529" height="236.734" fill="none" style="stroke:#000;stroke-width:1.5;"/><rect x="375.796" y="370.656" width="425.529" height="162.469" fill="none" style="stroke:#000;stroke-width:1.5;"/><g><title>Operator</title><rect x="40.833" y="123.594" width="8" height="606.195" fill="#000" fill-opacity="0"/><line x1="44.333" y1="123.594" x2="44.333" y2="729.789" style="stroke:#181818;stroke-width:0.5;stroke-dasharray:5,5;"/></g><g><title>HTTP API</title><rect x="213.38" y="123.594" width="8" height="606.195" fill="#000" fill-opacity="0"/><line x1="216.88" y1="123.594" x2="216.88" y2="729.789" style="stroke:#181818;stroke-width:0.5;stroke-dasharray:5,5;"/></g><g><title>CallingService</title><rect x="388.296" y="123.594" width="8" height="606.195" fill="#000" fill-opacity="0"/><line x1="391.796" y1="123.594" x2="391.796" y2="729.789" style="stroke:#181818;stroke-width:0.5;stroke-dasharray:5,5;"/></g><g><title>QueueViewReader</title><rect x="642.373" y="123.594" width="8" height="606.195" fill="#000" fill-opacity="0"/><line x1="645.873" y1="123.594" x2="645.873" y2="729.789" style="stroke:#181818;stroke-width:0.5;stroke-dasharray:5,5;"/></g><g><title>CallRepository</title><rect x="781.825" y="123.594" width="8" height="606.195" fill="#000" fill-opacity="0"/><line x1="785.325" y1="123.594" x2="785.325" y2="729.789" style="stroke:#181818;stroke-width:0.5;stroke-dasharray:5,5;"/></g><g><title>WebSocketCallHub</title><rect x="922.99" y="123.594" width="8" height="606.195" fill="#000" fill-opacity="0"/><line x1="926.49" y1="123.594" x2="926.49" y2="729.789" style="stroke:#181818;stroke-width:0.5;stroke-dasharray:5,5;"/></g><g><title>Public Displays</title><rect x="1103.876" y="123.594" width="8" height="606.195" fill="#000" fill-opacity="0"/><line x1="1107.376" y1="123.594" x2="1107.376" y2="729.789" style="stroke:#181818;stroke-width:0.5;stroke-dasharray:5,5;"/></g><text x="10" y="120.292" fill="#000" font-size="14" textLength="62.665">Operator</text><ellipse cx="44.333" cy="55.797" rx="8" ry="8" fill="#E2E2F0" style="stroke:#181818;stroke-width:0.5;"/><path d="M44.333,63.797 L44.333,90.797 M31.333,71.797 L57.333,71.797 M44.333,90.797 L31.333,105.797 M44.333,90.797 L57.333,105.797" style="stroke:#181818;stroke-width:0.5;" fill="none"/><rect x="178.544" y="92.297" width="76.672" height="30.297" fill="#E2E2F0" style="stroke:#181818;stroke-width:0.5;" rx="2.5" ry="2.5"/><text x="185.544" y="112.292" fill="#000" font-size="14" textLength="62.672">HTTP API</text><rect x="335.034" y="92.297" width="113.524" height="30.297" fill="#E2E2F0" style="stroke:#181818;stroke-width:0.5;" rx="2.5" ry="2.5"/><text x="342.034" y="112.292" fill="#000" font-size="14" textLength="99.524">CallingService</text><rect x="574.024" y="92.297" width="143.698" height="30.297" fill="#E2E2F0" style="stroke:#181818;stroke-width:0.5;" rx="2.5" ry="2.5"/><text x="581.024" y="112.292" fill="#000" font-size="14" textLength="129.698">QueueViewReader</text><rect x="727.722" y="92.297" width="115.206" height="30.297" fill="#E2E2F0" style="stroke:#181818;stroke-width:0.5;" rx="2.5" ry="2.5"/><text x="734.722" y="112.292" fill="#000" font-size="14" textLength="101.206">CallRepository</text><rect x="852.928" y="92.297" width="147.123" height="30.297" fill="#E2E2F0" style="stroke:#181818;stroke-width:0.5;" rx="2.5" ry="2.5"/><text x="859.928" y="112.292" fill="#000" font-size="14" textLength="133.123">WebSocketCallHub</text><rect x="1047.862" y="92.297" width="119.027" height="30.297" fill="#E2E2F0" style="stroke:#181818;stroke-width:0.5;" rx="2.5" ry="2.5"/><text x="1054.862" y="112.292" fill="#000" font-size="14" textLength="105.027">Public Displays</text><polygon points="204.88,148.727,214.88,152.727,204.88,156.727,208.88,152.727" fill="#181818" style="stroke:#181818;stroke-width:1;stroke-linejoin:miter;stroke-miterlimit:10;"/><line x1="44.333" y1="152.727" x2="210.88" y2="152.727" style="stroke:#181818;stroke-width:1;"/><text x="51.333" y="147.661" fill="#000" font-size="13" textLength="148.548">call next(queue, room)</text><polygon points="379.796,177.859,389.796,181.859,379.796,185.859,383.796,181.859" fill="#181818" style="stroke:#181818;stroke-width:1;stroke-linejoin:miter;stroke-miterlimit:10;"/><line x1="216.88" y1="181.859" x2="385.796" y2="181.859" style="stroke:#181818;stroke-width:1;"/><text x="223.88" y="176.793" fill="#000" font-size="13" textLength="150.916">call_next(queue, room)</text><polygon points="633.873,206.992,643.873,210.992,633.873,214.992,637.873,210.992" fill="#181818" style="stroke:#181818;stroke-width:1;stroke-linejoin:miter;stroke-miterlimit:10;"/><line x1="391.796" y1="210.992" x2="639.873" y2="210.992" style="stroke:#181818;stroke-width:1;"/><text x="398.796" y="205.926" fill="#000" font-size="13" textLength="178.648">load Queue and candidates</text><polygon points="402.796,236.125,392.796,240.125,402.796,244.125,398.796,240.125" fill="#181818" style="stroke:#181818;stroke-width:1;stroke-linejoin:miter;stroke-miterlimit:10;"/><line x1="396.796" y1="240.125" x2="644.873" y2="240.125" style="stroke:#181818;stroke-width:1;stroke-dasharray:2,2;"/><text x="408.796" y="235.059" fill="#000" font-size="13" textLength="230.077">Queue + ServiceAccess candidates</text><polygon points="773.325,265.258,783.325,269.258,773.325,273.258,777.325,269.258" fill="#181818" style="stroke:#181818;stroke-width:1;stroke-linejoin:miter;stroke-miterlimit:10;"/><line x1="391.796" y1="269.258" x2="779.325" y2="269.258" style="stroke:#181818;stroke-width:1;"/><text x="398.796" y="264.192" fill="#000" font-size="13" textLength="89.108">resolve Room</text><polygon points="402.796,294.391,392.796,298.391,402.796,302.391,398.796,298.391" fill="#181818" style="stroke:#181818;stroke-width:1;stroke-linejoin:miter;stroke-miterlimit:10;"/><line x1="396.796" y1="298.391" x2="784.325" y2="298.391" style="stroke:#181818;stroke-width:1;stroke-dasharray:2,2;"/><text x="408.796" y="293.325" fill="#000" font-size="13" textLength="49.912">room id</text><path d="M356.796,310.391 L433.42,310.391 L433.42,317.523 L423.42,327.523 L356.796,327.523 L356.796,310.391" style="stroke:#000;stroke-width:1.5;" fill="#EEE"/><rect x="356.796" y="310.391" width="469.529" height="236.734" fill="none" style="stroke:#000;stroke-width:1.5;"/><text x="371.796" y="323.458" fill="#000" font-size="13" textLength="31.624" font-weight="700">loop</text><text x="448.42" y="322.601" fill="#000" font-size="11" textLength="236.602" font-weight="700">[until conditional transition succeeds]</text><polygon points="773.325,354.656,783.325,358.656,773.325,362.656,777.325,358.656" fill="#181818" style="stroke:#181818;stroke-width:1;stroke-linejoin:miter;stroke-miterlimit:10;"/><line x1="391.796" y1="358.656" x2="779.325" y2="358.656" style="stroke:#181818;stroke-width:1;"/><text x="398.796" y="353.59" fill="#000" font-size="13" textLength="192.093">try_call(access, room, queue)</text><path d="M375.796,370.656 L440.239,370.656 L440.239,377.789 L430.239,387.789 L375.796,387.789 L375.796,370.656" style="stroke:#000;stroke-width:1.5;" fill="#EEE"/><rect x="375.796" y="370.656" width="425.529" height="162.469" fill="none" style="stroke:#000;stroke-width:1.5;"/><text x="390.796" y="383.723" fill="#000" font-size="13" textLength="19.443" font-weight="700">alt</text><text x="455.239" y="382.867" fill="#000" font-size="11" textLength="141.496" font-weight="700">[state is still WAITING]</text><polygon points="402.796,414.922,392.796,418.922,402.796,422.922,398.796,418.922" fill="#181818" style="stroke:#181818;stroke-width:1;stroke-linejoin:miter;stroke-miterlimit:10;"/><line x1="396.796" y1="418.922" x2="784.325" y2="418.922" style="stroke:#181818;stroke-width:1;stroke-dasharray:2,2;"/><text x="408.796" y="413.856" fill="#000" font-size="13" textLength="147.589">CALLED ServiceAccess</text><line x1="375.796" y1="427.922" x2="801.325" y2="427.922" style="stroke:#000;stroke-width:1;stroke-dasharray:2,2;"/><text x="380.796" y="440.132" fill="#000" font-size="11" textLength="126.484" font-weight="700">[concurrent change]</text><polygon points="402.796,462.859,392.796,466.859,402.796,470.859,398.796,466.859" fill="#181818" style="stroke:#181818;stroke-width:1;stroke-linejoin:miter;stroke-miterlimit:10;"/><line x1="396.796" y1="466.859" x2="784.325" y2="466.859" style="stroke:#181818;stroke-width:1;stroke-dasharray:2,2;"/><text x="408.796" y="461.793" fill="#000" font-size="13" textLength="82.259">no transition</text><polygon points="633.873,491.992,643.873,495.992,633.873,499.992,637.873,495.992" fill="#181818" style="stroke:#181818;stroke-width:1;stroke-linejoin:miter;stroke-miterlimit:10;"/><line x1="391.796" y1="495.992" x2="639.873" y2="495.992" style="stroke:#181818;stroke-width:1;"/><text x="398.796" y="490.926" fill="#000" font-size="13" textLength="116.562">reload candidates</text><polygon points="402.796,521.125,392.796,525.125,402.796,529.125,398.796,525.125" fill="#181818" style="stroke:#181818;stroke-width:1;stroke-linejoin:miter;stroke-miterlimit:10;"/><line x1="396.796" y1="525.125" x2="644.873" y2="525.125" style="stroke:#181818;stroke-width:1;stroke-dasharray:2,2;"/><text x="408.796" y="520.059" fill="#000" font-size="13" textLength="122.846">current candidates</text><polygon points="914.49,578.258,924.49,582.258,914.49,586.258,918.49,582.258" fill="#181818" style="stroke:#181818;stroke-width:1;stroke-linejoin:miter;stroke-miterlimit:10;"/><line x1="391.796" y1="582.258" x2="920.49" y2="582.258" style="stroke:#181818;stroke-width:1;"/><text x="398.796" y="577.192" fill="#000" font-size="13" textLength="112.62">publish CallEvent</text><line x1="926.49" y1="611.391" x2="968.49" y2="611.391" style="stroke:#181818;stroke-width:1;"/><line x1="968.49" y1="611.391" x2="968.49" y2="624.391" style="stroke:#181818;stroke-width:1;"/><line x1="927.49" y1="624.391" x2="968.49" y2="624.391" style="stroke:#181818;stroke-width:1;"/><polygon points="937.49,620.391,927.49,624.391,937.49,628.391,933.49,624.391" fill="#181818" style="stroke:#181818;stroke-width:1;stroke-linejoin:miter;stroke-miterlimit:10;"/><text x="933.49" y="606.325" fill="#000" font-size="13" textLength="166.886">resolve affected monitors</text><polygon points="1095.376,649.523,1105.376,653.523,1095.376,657.523,1099.376,653.523" fill="#181818" style="stroke:#181818;stroke-width:1;stroke-linejoin:miter;stroke-miterlimit:10;"/><line x1="926.49" y1="653.523" x2="1101.376" y2="653.523" style="stroke:#181818;stroke-width:1;stroke-dasharray:2,2;"/><text x="933.49" y="648.458" fill="#000" font-size="13" textLength="123.018">WebSocket update</text><polygon points="227.88,678.656,217.88,682.656,227.88,686.656,223.88,682.656" fill="#181818" style="stroke:#181818;stroke-width:1;stroke-linejoin:miter;stroke-miterlimit:10;"/><line x1="221.88" y1="682.656" x2="390.796" y2="682.656" style="stroke:#181818;stroke-width:1;stroke-dasharray:2,2;"/><text x="233.88" y="677.59" fill="#000" font-size="13" textLength="65.019">CallResult</text><polygon points="55.333,707.789,45.333,711.789,55.333,715.789,51.333,711.789" fill="#181818" style="stroke:#181818;stroke-width:1;stroke-linejoin:miter;stroke-miterlimit:10;"/><line x1="49.333" y1="711.789" x2="215.88" y2="711.789" style="stroke:#181818;stroke-width:1;stroke-dasharray:2,2;"/><text x="61.333" y="706.723" fill="#000" font-size="13" textLength="143.286">called access + Room</text><?plantuml-src VPFDRjim3CVlUWgYfnPhNs270a5Rh06ABKk3zLWm4jC8LIHLbDFcxKT9jXSZmGpObiKVANxylRM6O1D2NeSlnU_MHqou0zwY2P_Mly467PDIsMP7iC1ioMVGw5mneZTWB4U71-YYmImawXmI_8gKK1PAucMhRKHnktXShHOmMyml0BcyfzQx5lMPqjvggao_ddA_E-heZwNF9Q6XLC6sF8stf1ZOIYA77ejX2htG-ZdeTyg5VkpM5PFtb5fqQsSrtBTQkKB3Xr93iN1pMwg2xxL1uEahNtwKPAyXXR2xKiKeJ5zLpxsUSWCWR2jCK1VGG2szjbtBmvQEi-gHcqdaHduRTcPQ4_Enr-IC6CGb4GUt9rXA3ghkJKEMtC0QfLm84JgVhGCT962smQE3dD1p_G3kv3moh42kqvDoEhoMqY-nfjNAleRQWwlgWou3PqaKBCl2IZjVPlFL_EUFQYxNcGplPazF3_VJcYjF8kAIg-vIgWBUed-Z_uNouQYU4Jmtc4HrD4Uj_HVsp6365AOyUQFAVJmNaQ4unA8zta8HwCDUN5NP7yt3r72p8Pt9m2xu8dXkc723K0KUrJxyhkDfetJRNyEToqskOXZrtGGhPxIvYRoALlu2?></g></svg>