<svg xmlns="http://www.w3.org/2000/svg" xmlns:xlink="http://www.w3.org/1999/xlink" version="1.1" data-diagram-type="DESCRIPTION" style="width:1082px;height:395px;background:#FFFFFF;" width="1082px" height="395px" viewBox="0 0 1082 395" zoomAndPan="magnify" preserveAspectRatio="none" contentStyleType="text/css"><?plantuml 1.2026.9beta4?><defs/><g font-family="sans-serif" lengthAdjust="spacing"><g class="title" data-source-line="6"><text x="327.497" y="22.995" fill="#000" font-size="14" textLength="420.116" font-weight="700">AZFlow development and demonstration deployment</text></g><!--cluster host--><g class="cluster" data-qualified-name="host" id="ent0002" data-source-line="10"><polygon points="133.04,109.427,143.04,99.427,1057.11,99.427,1057.11,360.427,1047.11,370.427,133.04,370.427,133.04,109.427" fill="none" style="stroke:#181818;stroke-width:1;stroke-linejoin:miter;stroke-miterlimit:10;"/><line x1="1047.11" y1="109.427" x2="1057.11" y2="99.427" style="stroke:#181818;stroke-width:1;"/><line x1="133.04" y1="109.427" x2="1047.11" y2="109.427" style="stroke:#181818;stroke-width:1;"/><line x1="1047.11" y1="109.427" x2="1047.11" y2="370.427" style="stroke:#181818;stroke-width:1;"/><text x="518.874" y="125.422" fill="#000" font-size="14" textLength="144.402" font-weight="700">Development host</text></g><!--cluster compose--><g class="cluster" data-qualified-name="host.compose" id="ent0005" data-source-line="14"><rect x="157.04" y="233.427" width="876.07" height="113" fill="none" style="stroke:#181818;stroke-width:1;" rx="2.5" ry="2.5"/><path d="M299.11,233.427 L299.11,242.724 L289.11,252.724 L157.04,252.724" style="stroke:#181818;stroke-width:1;" fill="none"/><text x="160.04" y="247.422" fill="#000" font-size="14" textLength="132.07" font-weight="700">Docker Compose</text></g><!--entity azflow--><g class="entity" data-qualified-name="host.azflow" id="ent0003" data-source-line="11"><rect x="346.74" y="138.977" width="158.494" height="78.891" fill="#F1F1F1" style="stroke:#181818;stroke-width:0.5;" rx="2.5" ry="2.5"/><rect x="485.234" y="143.977" width="15" height="10" fill="#F1F1F1" style="stroke:#181818;stroke-width:0.5;"/><rect x="483.234" y="145.977" width="4" height="2" fill="#F1F1F1" style="stroke:#181818;stroke-width:0.5;"/><rect x="483.234" y="149.977" width="4" height="2" fill="#F1F1F1" style="stroke:#181818;stroke-width:0.5;"/><text x="361.74" y="171.972" fill="#000" font-size="14" textLength="51.126">AZFlow</text><text x="361.74" y="188.269" fill="#000" font-size="14" textLength="118.494">Uvicorn / FastAPI</text><text x="361.74" y="204.566" fill="#000" font-size="14" textLength="40.346">:8000</text></g><!--entity mock--><g class="entity" data-qualified-name="host.mock" id="ent0004" data-source-line="12"><rect x="585.44" y="143.127" width="215.622" height="62.594" fill="#F1F1F1" style="stroke:#181818;stroke-width:0.5;" rx="2.5" ry="2.5"/><rect x="781.062" y="148.127" width="15" height="10" fill="#F1F1F1" style="stroke:#181818;stroke-width:0.5;"/><rect x="779.062" y="150.127" width="4" height="2" fill="#F1F1F1" style="stroke:#181818;stroke-width:0.5;"/><rect x="779.062" y="154.127" width="4" height="2" fill="#F1F1F1" style="stroke:#181818;stroke-width:0.5;"/><text x="600.44" y="176.122" fill="#000" font-size="14" textLength="175.622">MockAppointmentSource</text><text x="600.44" y="192.419" fill="#000" font-size="14" textLength="82.243">(in process)</text></g><!--entity nginx--><g class="entity" data-qualified-name="host.compose.nginx" id="ent0006" data-source-line="15"><polygon points="173.04,278.127,183.04,268.127,286.745,268.127,286.745,320.721,276.745,330.721,173.04,330.721,173.04,278.127" fill="#F1F1F1" style="stroke:#181818;stroke-width:0.5;stroke-linejoin:miter;stroke-miterlimit:10;"/><line x1="276.745" y1="278.127" x2="286.745" y2="268.127" style="stroke:#181818;stroke-width:0.5;"/><line x1="173.04" y1="278.127" x2="276.745" y2="278.127" style="stroke:#181818;stroke-width:0.5;"/><line x1="276.745" y1="278.127" x2="276.745" y2="330.721" style="stroke:#181818;stroke-width:0.5;"/><text x="188.04" y="301.122" fill="#000" font-size="14" textLength="73.705">demo-web</text><text x="188.04" y="317.419" fill="#000" font-size="14" textLength="67.389">Nginx :80</text></g><!--entity adminer--><g class="entity" data-qualified-name="host.compose.adminer" id="ent0007" data-source-line="16"><polygon points="356.61,278.127,366.61,268.127,495.369,268.127,495.369,320.721,485.369,330.721,356.61,330.721,356.61,278.127" fill="#F1F1F1" style="stroke:#181818;stroke-width:0.5;stroke-linejoin:miter;stroke-miterlimit:10;"/><line x1="485.369" y1="278.127" x2="495.369" y2="268.127" style="stroke:#181818;stroke-width:0.5;"/><line x1="356.61" y1="278.127" x2="485.369" y2="278.127" style="stroke:#181818;stroke-width:0.5;"/><line x1="485.369" y1="278.127" x2="485.369" y2="330.721" style="stroke:#181818;stroke-width:0.5;"/><text x="371.61" y="301.122" fill="#000" font-size="14" textLength="59.233">Adminer</text><text x="371.61" y="317.419" fill="#000" font-size="14" textLength="98.759">:8080 internal</text></g><!--entity postgres--><g class="entity" data-qualified-name="host.compose.postgres" id="ent0008" data-source-line="17"><path d="M631.75,278.627 C631.75,268.627 693.259,268.627 693.259,268.627 C693.259,268.627 754.768,268.627 754.768,278.627 L754.768,320.221 C754.768,330.221 693.259,330.221 693.259,330.221 C693.259,330.221 631.75,330.221 631.75,320.221 L631.75,278.627" style="stroke:#181818;stroke-width:0.5;" fill="#F1F1F1"/><path d="M631.75,278.627 C631.75,288.627 693.259,288.627 693.259,288.627 C693.259,288.627 754.768,288.627 754.768,278.627" style="stroke:#181818;stroke-width:0.5;" fill="none"/><text x="641.75" y="305.622" fill="#000" font-size="14" textLength="103.018">PostgreSQL 16</text><text x="641.75" y="321.919" fill="#000" font-size="14" textLength="98.759">:5432 internal</text></g><!--entity volume--><g class="entity" data-qualified-name="host.compose.volume" id="ent0009" data-source-line="18"><rect x="881.27" y="271.627" width="135.834" height="55.594" fill="#F1F1F1" style="stroke:#181818;stroke-width:0.5;" rx="2.5" ry="2.5"/><polygon points="1000.104,276.627,1000.104,290.627,1012.104,290.627,1012.104,282.627,1006.104,276.627,1000.104,276.627" fill="#F1F1F1" style="stroke:#181818;stroke-width:0.5;stroke-linejoin:miter;stroke-miterlimit:10;"/><line x1="1006.104" y1="276.627" x2="1006.104" y2="282.627" style="stroke:#181818;stroke-width:0.5;"/><line x1="1012.104" y1="282.627" x2="1006.104" y2="282.627" style="stroke:#181818;stroke-width:0.5;"/><text x="891.27" y="297.622" fill="#000" font-size="14" textLength="49.308">pgdata</text><text x="891.27" y="313.919" fill="#000" font-size="14" textLength="105.834">Docker volume</text></g><!--entity browser--><g class="entity" data-qualified-name="browser" id="ent0001" data-source-line="8"><polygon points="16,286.277,26,276.277,113.039,276.277,113.039,312.574,103.039,322.574,16,322.574,16,286.277" fill="#F1F1F1" style="stroke:#181818;stroke-width:0.5;stroke-linejoin:miter;stroke-miterlimit:10;"/><line x1="103.039" y1="286.277" x2="113.039" y2="276.277" style="stroke:#181818;stroke-width:0.5;"/><line x1="16" y1="286.277" x2="103.039" y2="286.277" style="stroke:#181818;stroke-width:0.5;"/><line x1="103.039" y1="286.277" x2="103.039" y2="322.574" style="stroke:#181818;stroke-width:0.5;"/><text x="31" y="309.272" fill="#000" font-size="14" textLength="57.039">Browser</text></g><g class="entity" data-qualified-name="GMN17" id="ent0018" data-source-line="31"><path d="M565.24,43.297 L565.24,83.563 A0,0 0 0 0 565.24,83.563 L690.11,83.563 L694.11,142.917 L698.11,83.563 L821.275,83.563 A0,0 0 0 0 821.275,83.563 L821.275,53.297 L811.275,43.297 L565.24,43.297 A0,0 0 0 0 565.24,43.297" style="stroke:#181818;stroke-width:0.5;" fill="#FEFFDD"/><path d="M811.275,43.297 L811.275,53.297 L821.275,53.297 L811.275,43.297" style="stroke:#181818;stroke-width:0.5;" fill="#FEFFDD"/><text x="571.24" y="60.364" fill="#000" font-size="13" textLength="118.377">Current slice only.</text><text x="571.24" y="75.497" fill="#000" font-size="13" textLength="235.035">A production adapter can replace it.</text></g><!--link browser to nginx--><g class="link" data-entity-1="ent0001" data-entity-2="ent0006" id="lnk10" data-source-line="22" data-link-type="dependency"><path d="M113.24,299.427 C131.92,299.427 148.39,299.427 167.78,299.427" style="stroke:#181818;stroke-width:1;" fill="none" id="browser-to-nginx"/><polygon points="172.78,299.427,163.78,295.427,167.78,299.427,163.78,303.427,172.78,299.427" fill="#181818" style="stroke:#181818;stroke-width:1;stroke-linejoin:miter;stroke-miterlimit:10;"/><text x="144.01" y="299.744" fill="#000" font-size="13" textLength="33.497">HTTP</text></g><!--link nginx to azflow--><g class="link" data-entity-1="ent0006" data-entity-2="ent0003" id="lnk11" data-source-line="23" data-link-type="dependency"><path d="M287.06,288.997 C318.87,288.997 352.11,288.997 352.11,288.997 C352.11,288.997 352.11,255.017 352.11,223.347" style="stroke:#181818;stroke-width:1;" fill="none" id="nginx-to-azflow"/><polygon points="352.11,218.347,348.11,227.347,352.11,223.347,356.11,227.347,352.11,218.347" fill="#181818" style="stroke:#181818;stroke-width:1;stroke-linejoin:miter;stroke-miterlimit:10;"/><text x="207.561" y="267.254" fill="#000" font-size="13" textLength="119.222">HTTP / WebSocket</text><text x="183.11" y="282.387" fill="#000" font-size="13" textLength="168.124">host.docker.internal:8000</text></g><!--link nginx to adminer--><g class="link" data-entity-1="ent0006" data-entity-2="ent0007" id="lnk12" data-source-line="24" data-link-type="dependency"><path d="M287.14,309.857 C308.73,309.857 328.54,309.857 351.15,309.857" style="stroke:#181818;stroke-width:1;" fill="none" id="nginx-to-adminer"/><polygon points="356.15,309.857,347.15,305.857,351.15,309.857,347.15,313.857,356.15,309.857" fill="#181818" style="stroke:#181818;stroke-width:1;stroke-linejoin:miter;stroke-miterlimit:10;"/><text x="258.65" y="305.924" fill="#000" font-size="13" textLength="62.835">/adminer/</text></g><!--link azflow to postgres--><g class="link" data-entity-1="ent0003" data-entity-2="ent0008" id="lnk13" data-source-line="25" data-link-type="dependency"><path d="M501.11,218.087 C501.11,249.867 501.11,289.157 501.11,289.157 C501.11,289.157 570.23,289.157 626.4,289.157" style="stroke:#181818;stroke-width:1;" fill="none" id="azflow-to-postgres"/><polygon points="631.4,289.157,622.4,285.157,626.4,289.157,622.4,293.157,631.4,289.157" fill="#181818" style="stroke:#181818;stroke-width:1;stroke-linejoin:miter;stroke-miterlimit:10;"/><text x="574.341" y="270.224" fill="#000" font-size="13" textLength="74.985">PostgreSQL</text><text x="531.72" y="285.357" fill="#000" font-size="13" textLength="160.228">POSTGRES_HOST / PORT</text></g><!--link adminer to postgres--><g class="link" data-entity-1="ent0007" data-entity-2="ent0008" id="lnk14" data-source-line="26" data-link-type="dependency"><path d="M495.86,309.697 C537.93,309.697 586.01,309.697 626.53,309.697" style="stroke:#181818;stroke-width:1;" fill="none" id="adminer-to-postgres"/><polygon points="631.53,309.697,622.53,305.697,626.53,309.697,622.53,313.697,631.53,309.697" fill="#181818" style="stroke:#181818;stroke-width:1;stroke-linejoin:miter;stroke-miterlimit:10;"/><text x="603.468" y="322.764" fill="#000" font-size="13" textLength="74.985">PostgreSQL</text><text x="564.7" y="337.897" fill="#000" font-size="13" textLength="152.521">service name: postgres</text></g><!--link postgres to volume--><g class="link" data-entity-1="ent0008" data-entity-2="ent0009" id="lnk15" data-source-line="27" data-link-type="dependency"><path d="M755.21,299.427 C793.23,299.427 836.96,299.427 876.06,299.427" style="stroke:#181818;stroke-width:1;" fill="none" id="postgres-to-volume"/><polygon points="881.06,299.427,872.06,295.427,876.06,299.427,872.06,303.427,881.06,299.427" fill="#181818" style="stroke:#181818;stroke-width:1;stroke-linejoin:miter;stroke-miterlimit:10;"/><text x="758.14" y="312.494" fill="#000" font-size="13" textLength="59.985">data files</text></g><!--link azflow to mock--><g class="link" data-entity-1="ent0003" data-entity-2="ent0004" id="lnk16" data-source-line="28" data-link-type="association"><path d="M505.46,174.427 C530.54,174.427 558.68,174.427 585.4,174.427" style="stroke:#181818;stroke-width:1;" fill="none" id="azflow-mock"/></g><?plantuml-src VLDDRnCn4BtxLunoWaC--5IL0r8eb2813TqW9BGISdPdDrQyCvRj9AIe_vtnUjEc5supdlTctZpR5fi8aS6RTXEXDXwhQ9XKs1foskiEmaRNV33KGgDjmBEADOJnw13OnmsV5Pokjhh58XujGkgegRMeL3HH3XQ_hYmVeCOzMdOTKWHDjUGTKuXUf_cIESl7L5IAk4OOlVTy2EX7e0EiStmgVJXhjU4GUqmAuAy2gBXpJAasogDB-h4t5Nk2ALpf41VBpoNDBsQpMK_KTus0dXA_ShLTECU6OffIyCvNMD8pG-0yLnZ2yvxR2Ku9jH4RaZ19qSDbQXImHrGvxfK1PFrfzV41roLzQmtz0T7IOobbPxX5tOdblXTxCGCHWvwqpQfphKVNEkgrbY6ZfPZGUYo-Vu4NRuNtvlMhbqzvBYD2JzG-caPNih1hKvEIXWtsR7TTNY270hzNzqeDDm7ZyRii5-PmlLejLKxISVPpE1VBV-AwI5rZIUcE9dK_Od9IrL_4EJql9lpf44xLq3ALJ_gb_hXiISkROlNfzcFn-re26RgykLsfKwl_y6GNUHi89FStVpJd0PsesG4X9ekWCLO03ug69q0S4TOS8tV0JJwyt7cVNbEmQGAJFKxK8hsVUjT_EbbLEp41AatoRPpL0ZDneb2-Hshu3m00?></g></svg>