<svg xmlns="http://www.w3.org/2000/svg" xmlns:xlink="http://www.w3.org/1999/xlink" version="1.1" data-diagram-type="STATE" style="width:383px;height:449px;background:#FFFFFF;" width="383px" height="449px" viewBox="0 0 383 449" zoomAndPan="magnify" preserveAspectRatio="none" contentStyleType="text/css"><?plantuml 1.2026.9beta4?><defs/><g font-family="sans-serif" lengthAdjust="spacing"><g class="title" data-source-line="4"><text x="97.5" y="22.995" fill="#000" font-size="14" textLength="181.87" font-weight="700">ServiceAccess lifecycle</text></g><g class="start_entity" data-qualified-name=".start." id="ent0001" data-source-line="6"><ellipse cx="243.85" cy="181.427" rx="10" ry="10" fill="#222" style="stroke:#222;stroke-width:1;"/></g><rect x="111.08" y="278.427" width="71.551" height="40" fill="#F1F1F1" style="stroke:#181818;stroke-width:0.5;" rx="12.5" ry="12.5"/><text x="116.08" y="303.274" fill="#000" font-size="14" textLength="61.551">WAITING</text><rect x="37.56" y="161.427" width="64.578" height="40" fill="#F1F1F1" style="stroke:#181818;stroke-width:0.5;" rx="12.5" ry="12.5"/><text x="42.56" y="186.274" fill="#000" font-size="14" textLength="54.578">CALLED</text><rect x="10.76" y="395.427" width="96.188" height="40" fill="#F1F1F1" style="stroke:#181818;stroke-width:0.5;" rx="12.5" ry="12.5"/><text x="15.76" y="420.274" fill="#000" font-size="14" textLength="86.188">SUSPENDED</text><rect x="28.21" y="44.297" width="83.295" height="40" fill="#F1F1F1" style="stroke:#181818;stroke-width:0.5;" rx="12.5" ry="12.5"/><text x="33.21" y="69.144" fill="#000" font-size="14" textLength="73.295">ADMITTED</text><g class="entity" data-qualified-name="GMN14" id="ent0015" data-source-line="16"><path d="M146.84,44.157 L146.84,60.297 L111.71,64.297 L146.84,68.297 L146.84,84.423 A0,0 0 0 0 146.84,84.423 L368.87,84.423 A0,0 0 0 0 368.87,84.423 L368.87,54.157 L358.87,44.157 L146.84,44.157 A0,0 0 0 0 146.84,44.157" style="stroke:#181818;stroke-width:0.5;" fill="#FEFFDD"/><path d="M358.87,44.157 L358.87,54.157 L368.87,54.157 L358.87,44.157" style="stroke:#181818;stroke-width:0.5;" fill="#FEFFDD"/><text x="152.84" y="61.224" fill="#000" font-size="13" textLength="201.03">No terminal completed state is</text><text x="152.84" y="76.357" fill="#000" font-size="13" textLength="200.535">introduced in the current slice.</text></g><!--link *start* to WAITING--><g class="link" data-entity-1="ent0001" data-entity-2="ent0002" id="lnk3" data-source-line="6" data-link-type="dependency"><path d="M238.26,189.897 C228.92,202.287 209.44,227.767 191.85,248.427 C183.32,258.457 176.87,265.61 168.56,274.52" style="stroke:#181818;stroke-width:1;" fill="none" id="*start*-to-WAITING"/><polygon points="165.15,278.177,174.214,274.323,168.56,274.52,168.363,268.867,165.15,278.177" fill="#181818" style="stroke:#181818;stroke-width:1;stroke-linejoin:miter;stroke-miterlimit:10;"/><text x="205.85" y="244.494" fill="#000" font-size="13" textLength="49.804">created</text></g><!--link WAITING to CALLED--><g class="link" data-entity-1="ent0002" data-entity-2="ent0004" id="lnk5" data-source-line="7" data-link-type="dependency"><path d="M110.78,284.877 C94.28,277.117 76.33,265.337 66.85,248.427 C58.95,234.317 59.554,220.603 62.694,206.753" style="stroke:#181818;stroke-width:1;" fill="none" id="WAITING-to-CALLED"/><polygon points="63.8,201.877,57.909,209.77,62.694,206.753,65.711,211.539,63.8,201.877" fill="#181818" style="stroke:#181818;stroke-width:1;stroke-linejoin:miter;stroke-miterlimit:10;"/><text x="67.85" y="244.494" fill="#000" font-size="13" textLength="22.337">call</text></g><!--link CALLED to WAITING--><g class="link" data-entity-1="ent0004" data-entity-2="ent0002" id="lnk10" data-source-line="11" data-link-type="dependency"><path d="M82.74,201.677 C96.96,222.907 116.908,252.712 131.138,273.962" style="stroke:#181818;stroke-width:1;" fill="none" id="CALLED-to-WAITING"/><polygon points="133.92,278.117,132.236,268.413,131.138,273.962,125.589,272.864,133.92,278.117" fill="#181818" style="stroke:#181818;stroke-width:1;stroke-linejoin:miter;stroke-miterlimit:10;"/><text x="114.85" y="244.494" fill="#000" font-size="13" textLength="68.58">cancel call</text></g><!--link WAITING to SUSPENDED--><g class="link" data-entity-1="ent0002" data-entity-2="ent0006" id="lnk7" data-source-line="8" data-link-type="dependency"><path d="M137.12,318.727 C129.86,332.347 119.27,350.697 107.85,365.427 C99.74,375.887 93.173,382.951 84.193,391.541" style="stroke:#181818;stroke-width:1;" fill="none" id="WAITING-to-SUSPENDED"/><polygon points="80.58,394.997,89.849,391.666,84.193,391.541,84.319,385.885,80.58,394.997" fill="#181818" style="stroke:#181818;stroke-width:1;stroke-linejoin:miter;stroke-miterlimit:10;"/><text x="119.85" y="361.494" fill="#000" font-size="13" textLength="54.526">suspend</text></g><!--link SUSPENDED to WAITING--><g class="link" data-entity-1="ent0006" data-entity-2="ent0002" id="lnk8" data-source-line="9" data-link-type="dependency"><path d="M50.86,395.127 C46.42,381.177 43.34,362.397 51.85,348.427 C64.7,327.347 85.096,316.525 106.286,309.475" style="stroke:#181818;stroke-width:1;" fill="none" id="SUSPENDED-to-WAITING"/><polygon points="111.03,307.897,101.227,306.943,106.286,309.475,103.753,314.534,111.03,307.897" fill="#181818" style="stroke:#181818;stroke-width:1;stroke-linejoin:miter;stroke-miterlimit:10;"/><text x="52.85" y="361.494" fill="#000" font-size="13" textLength="46.509">restore</text></g><!--link SUSPENDED to CALLED--><g class="link" data-entity-1="ent0006" data-entity-2="ent0004" id="lnk9" data-source-line="10" data-link-type="dependency"><path d="M45.93,395.227 C29.92,369.027 6,320.547 16.85,278.427 C24.27,249.667 39.452,224.403 52.432,205.863" style="stroke:#181818;stroke-width:1;" fill="none" id="SUSPENDED-to-CALLED"/><polygon points="55.3,201.767,46.862,206.846,52.432,205.863,53.415,211.434,55.3,201.767" fill="#181818" style="stroke:#181818;stroke-width:1;stroke-linejoin:miter;stroke-miterlimit:10;"/><text x="17.85" y="302.994" fill="#000" font-size="13" textLength="75.588">call specific</text></g><!--link CALLED to ADMITTED--><g class="link" data-entity-1="ent0004" data-entity-2="ent0011" id="lnk12" data-source-line="12" data-link-type="dependency"><path d="M69.85,161.097 C69.85,139.817 69.85,110.817 69.85,89.567" style="stroke:#181818;stroke-width:1;" fill="none" id="CALLED-to-ADMITTED"/><polygon points="69.85,84.567,65.85,93.567,69.85,89.567,73.85,93.567,69.85,84.567" fill="#181818" style="stroke:#181818;stroke-width:1;stroke-linejoin:miter;stroke-miterlimit:10;"/><text x="70.85" y="127.494" fill="#000" font-size="13" textLength="37.591">admit</text></g><!--link ADMITTED to CALLED--><g class="link" data-entity-1="ent0011" data-entity-2="ent0004" id="lnk13" data-source-line="13" data-link-type="dependency"><path d="M46.19,84.357 C37.77,92.607 29.3,102.997 24.85,114.427 C18.22,131.487 26.737,145.092 40.087,157.572" style="stroke:#181818;stroke-width:1;" fill="none" id="ADMITTED-to-CALLED"/><polygon points="43.74,160.987,39.897,151.919,40.087,157.572,34.434,157.763,43.74,160.987" fill="#181818" style="stroke:#181818;stroke-width:1;stroke-linejoin:miter;stroke-miterlimit:10;"/><text x="25.85" y="127.494" fill="#000" font-size="13" textLength="35.68">recall</text></g><?plantuml-src NP31JiD034Jl-nK-8vKFu80KaGf5AXLIWZWW3YklqrZTx4Qs0-hViobGIA_pF6Dx1Wu4D4vsWa2AmfDnJawFd2OlVWGTVCYVd0xG-wZadB55WfRaWv4gH5A5o3tX2MF1RpVliDdSmslLTCt-4Uu0XRnHSB_AGX-gtMvRBz37k2BjI_kytTTdgBDEb8BxqzR9GcfPw8glig4a8FUCxaU-kiqdfFXznR-1gdvgkkuSuiF8vYx2Qe7GsUXIDWBXms2G-ulP0Ump6Cd8oPSTUPmYbI90hVG1h6M0aqaECnQL4zX0WBC89GEDfTvRLzw79VuB?></g></svg>